#tb 0: 1/25
#media_type 0: video
#codec_id 0: rawvideo
#dimensions 0: 1920x1080
#sar 0: 0/1
0,          0,          0,        1,  8294400, 0xa061c78c
0,          1,          1,        1,  8294400, 0x60250c76
0,          2,          2,        1,  8294400, 0x48e3fbdb
